 <!DOCTYPE svg PUBLIC "-//W3C//DTD SVG 1.1//EN" "http://www.w3.org/Graphics/SVG/1.1/DTD/svg11.dtd">
<svg xmlns="http://www.w3.org/2000/svg" width="865.76" height="682.89" viewBox="0 0 865.76 682.89">
<defs>
<style xmlns="http://www.w3.org/1999/xhtml">*, ::after, ::before { box-sizing: border-box; }
img, svg { vertical-align: middle; }
</style>
<style xmlns="http://www.w3.org/1999/xhtml">*, body, html { -webkit-font-smoothing: antialiased; }
img, svg { max-width: 100%; }
</style>
</defs>
<rect x="-0.24" y="597.14" width="866.24" height="0.43" fill="#ebebeb"/>
<rect x="90.65" y="613.63" width="57.38" height="0.43" fill="#ebebeb"/>
<rect x="251.54" y="608.94" width="59.77" height="0.43" fill="#ebebeb"/>
<rect x="131.57" y="622" width="96.01" height="0.43" fill="#ebebeb"/>
<rect x="702.53" y="623.59" width="74.83" height="0.43" fill="#ebebeb"/>
<rect x="641.52" y="612.77" width="39.67" height="0.43" fill="#ebebeb"/>
<rect x="338.69" y="619.71" width="162.3" height="0.43" fill="#ebebeb"/>
<path d="M410.36,519.87H75.84A9.89,9.89,0,0,1,66,510V39.73a9.89,9.89,0,0,1,9.88-9.8H410.36a9.89,9.89,0,0,1,9.89,9.89h0V510A9.89,9.89,0,0,1,410.36,519.87ZM75.84,30.27a9.46,9.46,0,0,0-9.45,9.46V510a9.46,9.46,0,0,0,9.45,9.46H410.36a9.48,9.48,0,0,0,9.46-9.46V39.73a9.48,9.48,0,0,0-9.46-9.46Z" fill="#ebebeb"/>
<path d="M785.11,519.87H450.57a9.91,9.91,0,0,1-9.89-9.89V39.73a9.9,9.9,0,0,1,9.89-9.8H785.11a9.89,9.89,0,0,1,9.86,9.8V510A9.89,9.89,0,0,1,785.11,519.87ZM450.57,30.27a9.48,9.48,0,0,0-9.46,9.46V510a9.48,9.48,0,0,0,9.46,9.46H785.11a9.48,9.48,0,0,0,9.46-9.46V39.73a9.48,9.48,0,0,0-9.46-9.46Z" fill="#ebebeb"/>
<rect x="257.21" y="591.77" width="93.8" height="5.37" fill="#e0e0e0"/>
<path d="M295.67,474.46l-26,117.31h68.7l-26-117.31a8.67,8.67,0,0,0-16.72,0Z" fill="#e0e0e0"/>
<polygon points="317.69 497.75 290.52 497.75 283.96 527.48 324.25 527.48 317.69 497.75" fill="#f5f5f5"/>
<polygon points="325.4 532.71 282.81 532.71 279.47 547.76 328.73 547.76 325.4 532.71" fill="#f5f5f5"/>
<polygon points="125.4 597.14 139.33 597.14 180.36 367.76 166.41 367.76 125.4 597.14" fill="#e0e0e0"/>
<polygon points="490.31 597.14 504.26 597.14 545.28 367.76 531.34 367.76 490.31 597.14" fill="#e0e0e0"/>
<rect x="125.4" y="378.93" width="460.91" height="83.37" fill="#ebebeb"/>
<polygon points="175.37 458.61 127.58 458.61 154.09 382.61 201.87 382.61 175.37 458.61" fill="#fafafa"/>
<polygon points="270.93 458.61 223.15 458.61 249.66 382.61 297.42 382.61 270.93 458.61" fill="#fafafa"/>
<polygon points="366.49 458.61 318.71 458.61 345.2 382.61 392.98 382.61 366.49 458.61" fill="#fafafa"/>
<polygon points="462.04 458.61 414.26 458.61 440.76 382.61 488.55 382.61 462.04 458.61" fill="#fafafa"/>
<polygon points="557.6 458.61 509.82 458.61 536.33 382.61 584.11 382.61 557.6 458.61" fill="#fafafa"/>
<polygon points="221.38 597.14 207.43 597.14 166.41 367.76 180.36 367.76 221.38 597.14" fill="#e0e0e0"/>
<polygon points="586.29 597.14 572.36 597.14 531.34 367.76 545.28 367.76 586.29 597.14" fill="#e0e0e0"/>
<rect x="651.17" y="590.09" width="123.01" height="7.05" fill="#e0e0e0"/>
<path d="M700.81,439.92,667.63,590.09h90.09L724.54,439.92C721.74,427.22,703.62,427.22,700.81,439.92Z" fill="#e0e0e0"/>
<polygon points="730.49 466.81 694.87 466.81 686.26 505.79 739.1 505.79 730.49 466.81" fill="#f5f5f5"/>
<polygon points="740.61 512.65 684.75 512.65 680.38 532.38 744.97 532.38 740.61 512.65" fill="#f5f5f5"/>
<path d="M801.9,353.73v50.76a5.05,5.05,0,0,1-5,5,5.1,5.1,0,0,1-1.5-.23L62.51,177.05a5,5,0,0,1-3.46-4.78V121.49a5,5,0,0,1,5-5,4.9,4.9,0,0,1,1.56.25L798.44,348.86A5,5,0,0,1,801.9,353.73Z" fill="#ebebeb"/>
<polygon points="744.23 389.21 784.58 401.99 762.19 341.34 721.86 328.55 744.23 389.21" fill="#fafafa"/>
<polygon points="663.54 363.64 703.89 376.42 681.51 315.77 641.18 302.98 663.54 363.64" fill="#fafafa"/>
<polygon points="582.86 338.08 623.21 350.85 600.83 290.2 560.48 277.41 582.86 338.08" fill="#fafafa"/>
<polygon points="502.18 312.49 542.53 325.3 520.15 264.63 479.8 251.84 502.18 312.49" fill="#fafafa"/>
<polygon points="421.5 286.94 461.83 299.73 439.46 239.05 399.12 226.27 421.5 286.94" fill="#fafafa"/>
<polygon points="340.82 261.37 381.15 274.15 358.78 213.48 318.43 200.7 340.82 261.37" fill="#fafafa"/>
<polygon points="260.12 235.8 300.47 248.58 278.08 187.91 237.75 175.13 260.12 235.8" fill="#fafafa"/>
<polygon points="179.44 210.22 219.79 223.01 197.4 162.34 157.07 149.55 179.44 210.22" fill="#fafafa"/>
<polygon points="98.76 184.65 139.1 197.44 116.72 136.77 76.39 123.98 98.76 184.65" fill="#fafafa"/>
<polygon points="218.03 604.61 218.03 621.18 130.61 621.18 130.63 604.61 218.03 604.61" fill="#2f2e41" data-secondary="true"/>
<path d="M180,533.65h38v79.24h-87.4s-.93-14.4,9.39-19.21,32-13.21,32-13.21Z" fill="#f20000" data-primary="true"/>
<polygon points="254.16 604.61 254.16 621.18 341.58 621.18 341.56 604.61 254.16 604.61" fill="#2f2e41" data-secondary="true"/>
<path d="M292.15,533.65h-38v79.24h87.39s.94-14.4-9.38-19.21-32-13.21-32-13.21Z" fill="#f20000" data-primary="true"/>
<path d="M404.91,581.74c-3.76,0-8.25-1-13.55-3.89-22.29-12-38.12-47.44-47.06-105.45A645,645,0,0,1,337.42,390L347,390A633.85,633.85,0,0,0,353.8,471c8.35,54,22.9,88,42.1,98.35,8.94,4.8,12.7,2.1,13.93,1.22,4.82-3.46,12.58-16.13,10.43-62.12a509.21,509.21,0,0,0-5.57-52.88l9.47-1.6A516.14,516.14,0,0,1,429.85,508c1.84,39.12-2.88,62.17-14.42,70.45A17.73,17.73,0,0,1,404.91,581.74Z" fill="#2e3135"/>
<path d="M307.64,504.27c-3.93-8.81-.95-143.26-3.57-165.67s-11-59.12-11-59.12L237.12,284l-56.92-5.22s-7.64,37.39-10.26,59.81.65,159.19-3.27,168-1.34,36.82,7.72,44,45.83,8,48.37,0,4.78-33.62,3.79-44.83S235.2,338.6,235.2,338.6h3.61S246,496.19,245,507.4s-.44,36.05,2.49,44.05,45.49,7.2,56,0S311.56,513.07,307.64,504.27Z" fill="#2f2e41" data-secondary="true"/>
<path d="M326.2,411.64c-6.79,0-12.95-4.43-17.34-12.48-3.89-7.13-6-16.5-6-26.39s2.14-19.27,6-26.39c4.39-8.06,10.55-12.49,17.34-12.49s13,4.43,17.35,12.49c3.89,7.12,6,16.5,6,26.39s-2.13,19.26-6,26.39C339.16,407.21,333,411.64,326.2,411.64Zm0-68.14c-3.07,0-6.32,2.72-8.91,7.47-3.08,5.66-4.85,13.6-4.85,21.8s1.77,16.13,4.85,21.79c2.59,4.75,5.84,7.48,8.91,7.48s6.33-2.73,8.92-7.48C338.2,388.9,340,381,340,372.77s-1.77-16.14-4.85-21.8C332.53,346.22,329.28,343.5,326.2,343.5Z" fill="#2e3135"/>
<polygon points="259.6 137.29 253.63 108.48 218.81 108.48 212.85 137.29 193.6 144.1 236.22 154.1 278.85 144.1 259.6 137.29" fill="#f9b499"/>
<path d="M217.47,113.81a21.06,21.06,0,0,0,18.61,10.9c13.33,0,20.09-10.9,20.09-10.9Z" fill="#f7a48b"/>
<path d="M165.19,142.32s-32.63,24.55-54.95,60.34c-19.89,31.89,43.34,69.22,43.34,69.22l17.36-19.1-19.12-32.36,16.62-17.64c1.6,14.52,3.06,25.9,3.06,25.9s3.22,44.46,5.17,52.27,45.85,6.64,60.17,5.43l-.09-145.08-19.36-12.75S169.08,135.72,165.19,142.32Z" fill="#f20000" data-primary="true"/>
<path d="M349.6,236.35c-5.07-41.87-39.75-94-39.75-94-3.89-6.6-53.4-13.77-53.4-13.77l-19.16,12.67-.54.08.54,145.08c17.14.53,58.29.9,60.24-6.9s3.73-30.06,3.73-30.06,1.17-9.41,2.68-22.66l8.23,19.93,6.47,62.3h28.05S354.71,278.53,349.6,236.35Z" fill="#f20000" data-primary="true"/>
<path d="M260,75.26a23.22,23.22,0,0,0-46.43,0c0,.42,0,.84,0,1.25.16,5.81.91,30.15,2,34.37,1.2,4.8,13.21,10.81,21.21,10.81s20-6,21.21-10.81c1.06-4.22,1.81-28.56,2-34.37C260,76.1,260,75.68,260,75.26Z" fill="#f9b499"/>
<polygon points="215.45 124.71 236.75 141.3 224.55 151.04 202.17 131.29 215.45 124.71" fill="#2f2e41" data-secondary="true"/>
<polygon points="236.75 141.3 257.07 123.14 269.58 130.68 249.29 151.04 236.75 141.3" fill="#2f2e41" data-secondary="true"/>
<polygon points="237.63 294.47 236.02 294.47 236.02 142.32 237.78 142.34 237.63 294.47" fill="#2f2e41" data-secondary="true"/>
<polygon points="264.05 180.34 263.46 207.15 290.98 207.15 288.67 178.94 264.05 180.34" fill="#2e3135"/>
<polygon points="262.46 178.94 290.98 178.94 277.48 194.09 262.46 178.94" fill="#3f4347"/>
<polygon points="186.84 180.34 186.25 207.15 213.77 207.15 211.46 178.94 186.84 180.34" fill="#2e3135"/>
<polygon points="185.25 178.94 213.77 178.94 200.27 194.09 185.25 178.94" fill="#3f4347"/>
<path d="M215.18,85.29s-.5-13.91,2.17-18c0,0,5.34-7.58,19.21-7.58s20.51,7.58,20.51,7.58,2.36,16.5,1.36,19.53c0,0,.92-5,4.06-7.63,0,0,.55-19.08-9.06-25.08s-37.11-3-39.82,5.07S210.39,81,210.39,81,215.32,82.68,215.18,85.29Z" fill="#2f2e41" data-secondary="true"/>
<path d="M215.29,83.27s.59-5.06-5.41-4.11-7.06,14.1,4.6,18.92Z" fill="#f9b499"/>
<path d="M257.08,83.27s-.59-5.06,5.41-4.11,7.06,14.1-4.6,18.92Z" fill="#f9b499"/>
<path d="M212.37,67.26s-3.8-11.85-3.09-17.65,25-11.6,30.45-11.09,23.88,8.13,24.71,12.35c1.19,6.06-2.24,16.39-2.24,16.39Z" fill="#f20000" data-primary="true"/>
<path d="M212.37,67.26s-5.62,4.92-5.23,7.32,55.39,0,58.31,0-3.25-7.32-3.25-7.32Z" fill="#f20000" data-primary="true"/>
<g opacity="0.2">
<path d="M212.37,67.26s-5.62,4.92-5.23,7.32,55.39,0,58.31,0-3.25-7.32-3.25-7.32Z"/>
</g>
<path d="M169.39,254.43s13.81-4.72,17-5,9.6,2.8,10.94,3.47,6.53,2.26,6.4,3.06-3.87,2.27-11.47.81c0,0,8.67,4.4,10.14,5.46s-.67,2.94-4.67,2.41a76.57,76.57,0,0,1-8.41-1.74s10.08,5.2,11.68,5.74,1.53,3.23-7.27,1.73a44.76,44.76,0,0,1-7.47-2.4s5.6,5.07,7.73,6.27-2.13,2.4-4.67,1.87-12-4.8-13.2-5.6-9.27,4.4-12.91,2.13a11.89,11.89,0,0,1-4.75-6.14Z" fill="#f9b499"/>
<g opacity="0.4">
<polygon points="202.65 162.3 209.44 163.47 204.38 168.15 205.37 174.96 199.36 171.59 193.18 174.64 194.52 167.88 189.72 162.95 196.56 162.14 199.77 156.05 202.65 162.3" fill="#fff"/>
<path d="M200.78,155.46a1,1,0,0,1-1,1,1,1,0,0,1-1-1,1,1,0,1,1,2-.06Z" fill="#fff"/>
<path d="M210.44,163.44a1,1,0,1,1-1-1A1,1,0,0,1,210.44,163.44Z" fill="#fff"/>
<path d="M190.59,163.06a1,1,0,0,1-2,.05,1,1,0,0,1,2-.05Z" fill="#fff"/>
<path d="M206.42,174.93a1,1,0,0,1-1,1,1,1,0,0,1-.06-2A1,1,0,0,1,206.42,174.93Z" fill="#fff"/>
<path d="M194.3,174.5a1,1,0,0,1-1,1,1,1,0,1,1,1-1Z" fill="#fff"/>
</g>
<polygon points="174.32 249.42 152.08 273.88 141.45 265.52 165.46 240.71 174.32 249.42" fill="#2f2e41" data-secondary="true"/>
<rect x="176.67" y="280.95" width="119.49" height="11.92" fill="#e1e1e2"/>
<path d="M272,271.88h15a7.34,7.34,0,0,1,7.34,7.34v31.25a10.68,10.68,0,0,1-10.68,10.68h-8.36a10.68,10.68,0,0,1-10.68-10.68V279.22A7.34,7.34,0,0,1,272,271.88Z" fill="#2e3135"/>
<polygon points="280.39 291.85 265.78 274.59 266.7 273.81 280.34 289.92 292.38 273.84 293.35 274.56 280.39 291.85" fill="#3f4347"/>
<rect x="226.02" y="279.04" width="24.01" height="15.78" rx="5.67" fill="#9ea0a3"/>
<path d="M320.61,318.45s-8.15,15.12-8.61,20.71,9.91-4.4,9.91-4.4,1.59,1.17,1,7.3c-.44,5-6.52,5.43-5.89,9.91s26.72-3.93,27.71-10.51-2.54-23.09-2.54-23.09Z" fill="#f9b499"/>
<polygon points="349.3 319.96 316.25 320.47 315.08 307 349.6 307.54 349.3 319.96" fill="#2f2e41" data-secondary="true"/>
<g opacity="0.4">
<path d="M232,47.3s-1.16,2.16-3.14,1.85c0,0,.88,9.7,7.38,9.79V45.17A4.66,4.66,0,0,1,232,47.3Z" fill="#fff"/>
<path d="M240.49,47.3a4.66,4.66,0,0,1-4.24-2.13V58.94c6.5-.09,7.38-9.79,7.38-9.79C241.65,49.46,240.49,47.3,240.49,47.3Z" fill="#fff"/>
</g>
<g opacity="0.2">
<circle cx="150.53" cy="264.85" r="2.68" transform="translate(-103.33 96.44) rotate(-26.83)"/>
</g>
<g opacity="0.2">
<circle cx="320.27" cy="314.01" r="2.68" transform="translate(-44.5 575.01) rotate(-80.02)"/>
</g>
<circle cx="243.63" cy="172.38" r="2.76" transform="translate(-50.53 222.76) rotate(-45)" fill="#2f2e41" data-secondary="true"/>
<circle cx="243.63" cy="193.41" r="2.76" transform="translate(-0.44 386.27) rotate(-76.76)" fill="#2f2e41" data-secondary="true"/>
<circle cx="243.63" cy="214.44" r="2.76" transform="translate(-20.91 402.48) rotate(-76.76)" fill="#2f2e41" data-secondary="true"/>
<circle cx="243.63" cy="235.47" r="2.76" transform="translate(-95.14 241.24) rotate(-45)" fill="#2f2e41" data-secondary="true"/>
<circle cx="243.63" cy="256.5" r="2.76" transform="translate(-61.85 434.91) rotate(-76.76)" fill="#2f2e41" data-secondary="true"/>
<g opacity="0.4">
<path d="M156.5,165.36a13.37,13.37,0,0,1-24.1,8c6.66-7.49,13.12-13.86,18.52-18.84A13.34,13.34,0,0,1,156.5,165.36Z" fill="#fff"/>
</g>
<g opacity="0.4">
<path d="M329.86,177.68a13.38,13.38,0,1,1-12.7-23.51C320.76,160.3,325.3,168.44,329.86,177.68Z" fill="#fff"/>
</g>
<path d="M214,92.65l-.8,0c.07-2.06-.19-7.71-2.13-9.12a1.8,1.8,0,0,0-1.76-.18l-.26-.75a2.56,2.56,0,0,1,2.5.28C214.22,84.81,214,92.33,214,92.65Z" fill="#f7a48b"/>
<path d="M211,93.3c-.2-.59-1.9-5.84-.29-7.54a2.1,2.1,0,0,1,2.23-.38l-.22.77c-1-.29-1.32.06-1.43.17-1.09,1.14,0,5.24.47,6.73Z" fill="#f7a48b"/>
<path d="M259.37,92.65c0-.32-.21-7.84,2.45-9.79a2.56,2.56,0,0,1,2.5-.28l-.26.75a1.8,1.8,0,0,0-1.76.18c-1.94,1.41-2.2,7.06-2.13,9.12Z" fill="#f7a48b"/>
<path d="M262.35,93.3l-.75-.25c.5-1.49,1.56-5.59.47-6.73-.11-.11-.44-.46-1.43-.17l-.22-.77a2.08,2.08,0,0,1,2.22.38C264.26,87.46,262.56,92.71,262.35,93.3Z" fill="#f7a48b"/>
<path d="M500.22,620.49c-2.4-12-27.61-10-27.61-10s15.61-57.23,9.6-66.83S463,535.39,463,535.39s.8-35.22,0-44.83-11.74-20-11.74-20L445.39,457a38,38,0,0,0,4-11.48c1.06-6.4-8.54-39.22-8.54-39.22,7.47-5.33,3.47-28,3.47-28-8.27,4-11.47,21.34-11.47,21.34H404.57s-3.2-17.34-11.47-21.34c0,0-4,22.68,3.47,28,0,0-9.6,32.82-8.54,39.22A38.12,38.12,0,0,0,392,457l-5.86,13.6s-10.94,10.41-11.74,20,0,44.83,0,44.83-13.21-1.34-19.21,8.27,9.6,66.83,9.6,66.83-25.21-2-27.61,10,17.61,9.61,17.61,9.61H482.61S502.62,632.5,500.22,620.49Z" fill="#2f2e41" data-secondary="true"/>
<polygon points="386.17 470.55 419.85 490.71 451.26 470.55 448.23 463.53 420.42 480.84 389.19 463.53 386.17 470.55" fill="#f20000" data-primary="true"/>
<path d="M409.51,631.3H356.62v-1c0-.35,0-8.6,3.8-13.61,3.18-4.24,10.43-5.55,13-5.89V535.39h2v77.22l-.92.08c-.09,0-9.2.82-12.49,5.2-2.64,3.52-3.23,9.14-3.36,11.41h48.72l-5.94-93.85,2-.13Z" fill="#2f2e41" data-secondary="true"/>
<path d="M480.68,631.3H427.79l6.07-96,2,.13-5.94,93.85h48.72c-.13-2.27-.72-7.89-3.36-11.41-3.29-4.38-12.4-5.19-12.49-5.2l-.92-.08V535.39h2V610.8c2.58.34,9.82,1.65,13,5.89,3.76,5,3.8,13.26,3.8,13.61Z" fill="#2f2e41" data-secondary="true"/>
<g opacity="0.2">
<path d="M409.51,631.3H356.62v-1c0-.35,0-8.6,3.8-13.61,3.18-4.24,10.43-5.55,13-5.89V535.39h2v77.22l-.92.08c-.09,0-9.2.82-12.49,5.2-2.64,3.52-3.23,9.14-3.36,11.41h48.72l-5.94-93.85,2-.13Z"/>
<path d="M480.68,631.3H427.79l6.07-96,2,.13-5.94,93.85h48.72c-.13-2.27-.72-7.89-3.36-11.41-3.29-4.38-12.4-5.19-12.49-5.2l-.92-.08V535.39h2V610.8c2.58.34,9.82,1.65,13,5.89,3.76,5,3.8,13.26,3.8,13.61Z"/>
</g>
<g opacity="0.2">
<path d="M401.24,443.21a25.23,25.23,0,0,1,7.55-8.39,19.69,19.69,0,0,1,5.16-2.65,17.07,17.07,0,0,1,5.81-.91,17.62,17.62,0,0,1,5.76,1.09c.47.15.9.38,1.35.56l.67.3.63.35,1.27.7,1.18.82a31.22,31.22,0,0,1,7.84,8.13,50.65,50.65,0,0,0-8.69-6.82l-1.17-.67-1.22-.59-.6-.28-.63-.24c-.42-.16-.82-.35-1.25-.47l-1.27-.37c-.43-.11-.87-.17-1.3-.26a11,11,0,0,0-1.3-.18c-.22,0-.43-.05-.65-.06h-.66a17,17,0,0,0-5.2.71,22.81,22.81,0,0,0-4.89,2.15A35.93,35.93,0,0,0,401.24,443.21Z"/>
</g>
<g opacity="0.2">
<path d="M412.85,436.67h11.7c4.3,0-1.4,7.34-1.4,7.34s-2.9-.4-2.8,2a1.69,1.69,0,0,1-2.7,0s.1-2.8-3.2-2.2C414.45,443.81,409.24,437.94,412.85,436.67Z"/>
</g>
<g opacity="0.2">
<circle cx="408.56" cy="429.32" r="2.92"/>
</g>
<g opacity="0.2">
<path d="M402.64,424.2a6.9,6.9,0,0,1,3.13-.08,8.49,8.49,0,0,1,3,1.17,6.72,6.72,0,0,1,2.26,2.36,4.81,4.81,0,0,1,.59,3.15,15.75,15.75,0,0,0-1.85-2.21,14.87,14.87,0,0,0-2.08-1.62c-.75-.48-1.55-.92-2.38-1.36S403.56,424.73,402.64,424.2Z"/>
</g>
<g opacity="0.2">
<circle cx="428.47" cy="429.32" r="2.92"/>
</g>
<g opacity="0.2">
<path d="M434.39,424.2c-.93.53-1.79,1-2.63,1.41s-1.63.88-2.38,1.36a14.87,14.87,0,0,0-2.08,1.62,15.75,15.75,0,0,0-1.85,2.21,4.81,4.81,0,0,1,.59-3.15,6.79,6.79,0,0,1,2.25-2.36,8.65,8.65,0,0,1,3-1.17A6.94,6.94,0,0,1,434.39,424.2Z"/>
</g>
<g opacity="0.2">
<rect x="417.71" y="441.69" width="2" height="14.92"/>
</g>
<g opacity="0.2">
<path d="M413.69,458.84c-3.8,0-7.13-3.16-7.28-3.31l1.39-1.44-.69.72.69-.72s3.25,3.07,6.4,2.72a5.11,5.11,0,0,0,3.68-2.55l1.67,1.11a7.06,7.06,0,0,1-5.14,3.43C414.17,458.82,413.93,458.84,413.69,458.84Z"/>
</g>
<g opacity="0.2">
<path d="M424.05,458.84c-.24,0-.48,0-.72,0a7.06,7.06,0,0,1-5.14-3.43l1.67-1.11a5.11,5.11,0,0,0,3.68,2.55c3.15.34,6.37-2.69,6.4-2.72l1.39,1.44C431.18,455.68,427.85,458.84,424.05,458.84Z"/>
</g>
<polygon points="424.2 491 433.02 492.52 426.45 498.6 427.73 507.46 419.92 503.08 411.89 507.04 413.63 498.26 407.39 491.84 416.28 490.79 420.45 482.87 424.2 491" fill="#f20000" data-primary="true"/>
<path d="M421.77,482.11a1.31,1.31,0,1,1-1.35-1.27A1.32,1.32,0,0,1,421.77,482.11Z" fill="#f20000" data-primary="true"/>
<path d="M434.33,492.48a1.31,1.31,0,1,1-1.35-1.27A1.31,1.31,0,0,1,434.33,492.48Z" fill="#f20000" data-primary="true"/>
<circle cx="407.2" cy="492.02" r="1.31" transform="translate(-104.71 110.12) rotate(-13.66)" fill="#f20000" data-primary="true"/>
<circle cx="427.79" cy="507.45" r="1.31" transform="translate(-107.77 115.42) rotate(-13.66)" fill="#f20000" data-primary="true"/>
<path d="M413.35,506.85a1.31,1.31,0,1,1-1.35-1.27A1.31,1.31,0,0,1,413.35,506.85Z" fill="#f20000" data-primary="true"/>
<g opacity="0.4">
<polygon points="424.2 491 433.02 492.52 426.45 498.6 427.73 507.46 419.92 503.08 411.89 507.04 413.63 498.26 407.39 491.84 416.28 490.79 420.45 482.87 424.2 491" fill="#fff"/>
<path d="M421.77,482.11a1.31,1.31,0,1,1-1.35-1.27A1.32,1.32,0,0,1,421.77,482.11Z" fill="#fff"/>
<path d="M434.33,492.48a1.31,1.31,0,1,1-1.35-1.27A1.31,1.31,0,0,1,434.33,492.48Z" fill="#fff"/>
<circle cx="407.2" cy="492.02" r="1.31" transform="translate(-104.71 110.12) rotate(-13.66)" fill="#fff"/>
<circle cx="427.79" cy="507.45" r="1.31" transform="translate(-107.77 115.42) rotate(-13.66)" fill="#fff"/>
<path d="M413.35,506.85a1.31,1.31,0,1,1-1.35-1.27A1.31,1.31,0,0,1,413.35,506.85Z" fill="#fff"/>
</g>
<g opacity="0.2">
<path d="M400.71,402.19s-.84-9.63-6.82-16.42c0,0-1.73,16.54,4.34,20.48Z"/>
</g>
<g opacity="0.2">
<path d="M437.18,402.19s.83-9.63,6.82-16.42c0,0,1.73,16.54-4.35,20.48Z"/>
</g>
<g opacity="0.2">
<path d="M392,457c4.19,3,8.3,6.17,12.55,9,.54.33,1.07.68,1.62,1,.27.16.54.32.81.45a7.19,7.19,0,0,0,.79.39,15.66,15.66,0,0,0,3.54.82,57.79,57.79,0,0,0,7.58.51,64,64,0,0,0,7.6-.3,17.11,17.11,0,0,0,3.58-.65,2.06,2.06,0,0,0,.36-.15l.17-.08.2-.12.82-.49c.54-.32,1.09-.66,1.63-1,2.16-1.38,4.29-2.8,6.37-4.3q1.58-1.12,3.06-2.34c.49-.41,1-.82,1.43-1.28a7.54,7.54,0,0,0,1.25-1.45,12.15,12.15,0,0,1-2.3,3.14c-.9.94-1.86,1.82-2.82,2.69-2,1.71-4,3.32-6.12,4.84l-1.6,1.12c-.27.19-.55.36-.83.54a5.4,5.4,0,0,1-1,.52,19.18,19.18,0,0,1-4,.9,60.71,60.71,0,0,1-7.85.4,53.13,53.13,0,0,1-7.84-.64,17.34,17.34,0,0,1-3.95-1.07,23,23,0,0,1-3.4-2.17c-2.11-1.55-4.08-3.23-6-4.93S393.84,458.8,392,457Z"/>
</g>
<polygon points="471.63 636.46 475.72 636.46 509 372.09 504.91 372.09 471.63 636.46" fill="#2e3135"/>
<polygon points="506.55 477.68 502.46 477.68 491.55 391.03 495.64 391.03 506.55 477.68" fill="#2e3135"/>
<path d="M657.94,636.22H638.42V47.92c0-3.16,19.52-3.16,19.52,0Z" fill="#e1e1e2"/>
<polygon points="657.94 268.85 638.42 272.78 638.42 245.77 657.94 245.77 657.94 268.85" opacity="0.2"/>
<rect x="551.41" y="-3.01" width="194.9" height="315.34" rx="20.32" transform="translate(446.54 790.28) rotate(-85.75)" fill="#fff"/>
<path d="M780.12,264.67h-1.69l-274-20.32a22.93,22.93,0,0,1-21.1-24.48L494.82,66A22.93,22.93,0,0,1,519.3,44.91l274,20.32a22.93,22.93,0,0,1,21.1,24.48L802.91,243.55a22.91,22.91,0,0,1-22.77,21.17ZM517.58,49.82a17.81,17.81,0,0,0-17.71,16.52L488.42,220.19a17.8,17.8,0,0,0,16.34,19l274,20.32a17.83,17.83,0,0,0,19-16.41L809.21,89.24a17.79,17.79,0,0,0-16.4-19l-274-20.32C518.47,49.83,518,49.82,517.58,49.82Z" fill="#f20000" data-primary="true"/>
<path d="M591.86,129.08l-34.41-2.58L558.6,111l37.46-38.35,16.47,1.21-3.11,41.79,8.46.65-1.08,14.64-8.47-.62-1,12.71-16.45-1.23Zm1.1-14.67L594.5,93l-19.73,20Z" fill="#f20000" data-primary="true"/>
<path d="M624.37,109.81q1.46-19.41,9.07-26.53t21.84-6.18a32.17,32.17,0,0,1,11.16,2.53,21.32,21.32,0,0,1,6.86,5,24.19,24.19,0,0,1,4,6,30.58,30.58,0,0,1,1.9,7.09,65.45,65.45,0,0,1,.73,16q-1.41,18.52-8.28,26.62t-22.22,7a30.26,30.26,0,0,1-13.66-3.75,22.53,22.53,0,0,1-8.08-8.67,30.33,30.33,0,0,1-3.06-10.57A69.5,69.5,0,0,1,624.37,109.81Zm18.72,1.42q-1,13,1,17.93c1.28,3.27,3.38,5.08,6.29,5.25a7,7,0,0,0,5.08-1.69,12.53,12.53,0,0,0,3.58-6.15A66.58,66.58,0,0,0,661,113q1-13.55-.95-18.37a7.36,7.36,0,0,0-6.53-5.18,7,7,0,0,0-7.13,4.25Q644.06,98.4,643.09,111.23Z" fill="#f20000" data-primary="true"/>
<path d="M707.1,101.9l-17.63-4.52A22.46,22.46,0,0,1,699,84.93q6.68-4.09,18.27-3.21,13.31,1,18.88,6.4A15.61,15.61,0,0,1,741.23,101a13.9,13.9,0,0,1-3,7.79,20.36,20.36,0,0,1-7.74,5.72,21.87,21.87,0,0,1,5.86,2.72,14.83,14.83,0,0,1,4.86,5.9,16.64,16.64,0,0,1,1.27,8.28,23,23,0,0,1-4.05,11.09,21,21,0,0,1-9.57,7.72,34.49,34.49,0,0,1-15.57,1.81,40.56,40.56,0,0,1-14.48-3.27,21.84,21.84,0,0,1-8.33-7,29.45,29.45,0,0,1-4.54-10.94l19.07-1.1a14.6,14.6,0,0,0,2.88,8.16,8.88,8.88,0,0,0,12.32.34,10.61,10.61,0,0,0,3.08-7.25,10.15,10.15,0,0,0-1.89-7.5,8.63,8.63,0,0,0-6.42-3.08,23.94,23.94,0,0,0-6.2.64l2-13.42a20.4,20.4,0,0,0,2.44.42,8.64,8.64,0,0,0,6.37-1.91,7.41,7.41,0,0,0,2.89-5.42A6.76,6.76,0,0,0,721,95.62a6.89,6.89,0,0,0-5-2.19,7.54,7.54,0,0,0-5.57,1.7A12.15,12.15,0,0,0,707.1,101.9Z" fill="#f20000" data-primary="true"/>
<path d="M565.83,155.76l26.28,2-.51,6.77-16.44-1.22-.39,5.08L590,169.56l-.49,6.47-15.24-1.14-.45,6.25,16.93,1.27-.53,7.18-26.75-2Z" fill="#f20000" data-primary="true"/>
<path d="M595.63,190,598,158.22l16.34,1.2a23.8,23.8,0,0,1,6.89,1.3,7.4,7.4,0,0,1,3.66,3.19,9.81,9.81,0,0,1-.37,9.71,8.74,8.74,0,0,1-3.39,2.88,11.48,11.48,0,0,1-3.54,1,9.82,9.82,0,0,1,2.48,1.36,9.58,9.58,0,0,1,1.44,1.79,12.69,12.69,0,0,1,1.23,2.07l4.07,9.55-11.1-.83-4.52-10.16a7.19,7.19,0,0,0-1.59-2.58,4.07,4.07,0,0,0-2.33-.91h-.87l-1,12.88Zm11.26-18.15,4.13.3a12.94,12.94,0,0,0,2.63-.24,2.69,2.69,0,0,0,1.69-.86,3.05,3.05,0,0,0,.75-1.81,2.89,2.89,0,0,0-.8-2.42,5.91,5.91,0,0,0-3.59-1.1l-4.32-.33Z" fill="#f20000" data-primary="true"/>
<path d="M630.06,192.45l2.35-31.73,16.36,1.22a23.72,23.72,0,0,1,6.87,1.29,7.41,7.41,0,0,1,3.67,3.18,9,9,0,0,1-3.21,12.33l-.49.27a12.14,12.14,0,0,1-3.54,1,10.23,10.23,0,0,1,2.47,1.35,11.37,11.37,0,0,1,1.44,1.8,11,11,0,0,1,1.22,2.06l4.06,9.55L650.19,194l-4.52-10.16a7.44,7.44,0,0,0-1.59-2.57,4.1,4.1,0,0,0-2.36-.92h-.86l-1,12.89Zm11.26-18.13,4.13.3a15.28,15.28,0,0,0,2.62-.23,2.55,2.55,0,0,0,1.69-.88,2.91,2.91,0,0,0,.77-1.8,3,3,0,0,0-.8-2.44,5.89,5.89,0,0,0-3.61-1.08l-4.21-.26Z" fill="#f20000" data-primary="true"/>
<path d="M663.67,179a15.06,15.06,0,0,1,14.67-15.45,14.45,14.45,0,0,1,2.94.21q7.92.57,11.85,5.16a16.16,16.16,0,0,1,3.38,12.24,19.53,19.53,0,0,1-2.55,9,13.49,13.49,0,0,1-5.83,5.08,17.93,17.93,0,0,1-9,1.47,20.36,20.36,0,0,1-8.77-2.37,13.43,13.43,0,0,1-5.3-5.84A18,18,0,0,1,663.67,179Zm9.8.76a10.67,10.67,0,0,0,1.27,7,6.77,6.77,0,0,0,9.53.95l.22-.19q1.89-1.92,2.27-7.24a9.89,9.89,0,0,0-1.32-6.78,6.2,6.2,0,0,0-4.74-2.42,5.94,5.94,0,0,0-4.93,1.7A10.61,10.61,0,0,0,673.47,179.79Z" fill="#f20000" data-primary="true"/>
<path d="M700.78,197.72,703.13,166l16.34,1.22a23.8,23.8,0,0,1,6.89,1.3,7.35,7.35,0,0,1,3.59,3.17,8.67,8.67,0,0,1,1.1,5.25,8.39,8.39,0,0,1-4.85,7.35,11.86,11.86,0,0,1-3.54,1,6.82,6.82,0,0,1,3.91,3.14,12.73,12.73,0,0,1,1.22,2.08l4.06,9.55-11.07-.83-4.52-10.16a7.62,7.62,0,0,0-1.6-2.57,4.07,4.07,0,0,0-2.35-.92h-.86l-1,12.89ZM712,179.57l4.13.3a13.07,13.07,0,0,0,2.65-.24,2.51,2.51,0,0,0,1.69-.88,2.9,2.9,0,0,0,.76-1.79,3,3,0,0,0-.79-2.42,5.84,5.84,0,0,0-3.61-1.1l-4.3-.32Z" fill="#f20000" data-primary="true"/>
<path d="M533.12,222.69l2.15-28.95,19.54,1.46-.25,3.38-15.72-1.17-.66,9,13.55,1-.25,3.38-13.55-1-1,13.15Z" fill="#2f2e41" data-secondary="true"/>
<path d="M557.52,210.26a15.83,15.83,0,0,1,4.71-11,13.17,13.17,0,0,1,10.29-3.39,14,14,0,0,1,7.1,2.46,12.61,12.61,0,0,1,4.5,5.7,17.5,17.5,0,0,1,1.12,7.91,17.21,17.21,0,0,1-2.37,7.74,12.16,12.16,0,0,1-5.44,4.89,14.34,14.34,0,0,1-7.16,1.27,13.76,13.76,0,0,1-7.16-2.52,12.57,12.57,0,0,1-4.47-5.76A16.52,16.52,0,0,1,557.52,210.26Zm3.94.36a11.66,11.66,0,0,0,2.21,8.47,9.84,9.84,0,0,0,13.85,1.31l.32-.28a12.31,12.31,0,0,0,3.38-8.47,14.79,14.79,0,0,0-.72-6.26,9.27,9.27,0,0,0-3.19-4.34,9.68,9.68,0,0,0-5.08-1.84,9.8,9.8,0,0,0-7.21,2.28c-2,1.8-3.23,4.85-3.56,9.2Z" fill="#2f2e41" data-secondary="true"/>
<path d="M589.15,226.86l2.17-29,12.83,1a16.83,16.83,0,0,1,5.82,1.22,6.38,6.38,0,0,1,3,3,8.25,8.25,0,0,1,.88,4.47,7.33,7.33,0,0,1-2.39,5.08,10.16,10.16,0,0,1-6.35,2.22,10.15,10.15,0,0,1,2.2,1.6,21.28,21.28,0,0,1,2.9,4.1l4.45,8.27-4.82-.38-3.39-6.3c-1-1.82-1.81-3.21-2.47-4.2a8.51,8.51,0,0,0-1.8-2.08,6,6,0,0,0-1.69-.9,13.7,13.7,0,0,0-2.12-.3l-4.45-.32-1,12.85ZM594.23,211l8.23.61a12.6,12.6,0,0,0,4.15-.24,4.4,4.4,0,0,0,2.38-1.58,4.68,4.68,0,0,0,1-2.54,4.37,4.37,0,0,0-1.24-3.48,7,7,0,0,0-4.62-1.7l-9.16-.69Z" fill="#2f2e41" data-secondary="true"/>
<path d="M618.2,229l2.15-29,10.87.8a13.25,13.25,0,0,1,5.25,1.28,7,7,0,0,1,2.95,2.93,7.3,7.3,0,0,1,.85,3.91,6.4,6.4,0,0,1-1.27,3.39,7.21,7.21,0,0,1-3.24,2.42,7.59,7.59,0,0,1,3.85,2.93,7.11,7.11,0,0,1,1.08,4.49,8.55,8.55,0,0,1-1.14,3.72,7.27,7.27,0,0,1-2.33,2.54,8.88,8.88,0,0,1-3.27,1.19,19,19,0,0,1-4.71.13Zm4.08-3.14,7.22.54a16.37,16.37,0,0,0,2.62,0,6.61,6.61,0,0,0,2.27-.62A4.32,4.32,0,0,0,636,224.3a5.26,5.26,0,0,0,.13-5.26,4.42,4.42,0,0,0-2.18-1.87,14.38,14.38,0,0,0-4.2-.79l-6.69-.49Zm1-13.37,6.27.47a14.09,14.09,0,0,0,3.67,0,3.85,3.85,0,0,0,3.24-3.76,4.83,4.83,0,0,0-.49-2.59,3.61,3.61,0,0,0-1.88-1.69,16.26,16.26,0,0,0-4.37-.73l-5.79-.44Z" fill="#2f2e41" data-secondary="true"/>
<path d="M645.94,231.09l2.15-29,3.84.29-2.17,28.95Z" fill="#2f2e41" data-secondary="true"/>
<path d="M656.52,231.87l2.17-29,10,.74a24.89,24.89,0,0,1,5.08.8,9.92,9.92,0,0,1,4.1,2.38,11.94,11.94,0,0,1,3.06,5.22,19,19,0,0,1,.61,7,19.79,19.79,0,0,1-1.2,5.79,13.81,13.81,0,0,1-2.29,4.06,10.14,10.14,0,0,1-2.82,2.44,10.74,10.74,0,0,1-3.58,1.2,19.88,19.88,0,0,1-4.69.14Zm4.1-3.12,6.18.46a15.38,15.38,0,0,0,4.54-.2,6.58,6.58,0,0,0,2.71-1.31,9.32,9.32,0,0,0,2.38-3.52,17.71,17.71,0,0,0,1.19-5.52,13.66,13.66,0,0,0-1-7.09,7.6,7.6,0,0,0-3.39-3.54,15.5,15.5,0,0,0-4.91-.95l-6.08-.46Z" fill="#2f2e41" data-secondary="true"/>
<path d="M685.75,234.05l2.15-29,10,.73a24.24,24.24,0,0,1,5.08.81A9.76,9.76,0,0,1,707,209a11.72,11.72,0,0,1,3.06,5.2,19.45,19.45,0,0,1,.63,7,21.33,21.33,0,0,1-1.2,5.79,13.74,13.74,0,0,1-2.31,4.08,10.24,10.24,0,0,1-2.82,2.42,10.94,10.94,0,0,1-3.56,1.2,20.43,20.43,0,0,1-4.69.15Zm4.08-3.13,6.18.46a15.3,15.3,0,0,0,4.53-.2,6.46,6.46,0,0,0,2.71-1.31,9.23,9.23,0,0,0,2.39-3.5,18.36,18.36,0,0,0,1.19-5.52,13.61,13.61,0,0,0-1-7.1,7.53,7.53,0,0,0-3.38-3.54,15.15,15.15,0,0,0-4.93-1l-6.08-.46Z" fill="#2f2e41" data-secondary="true"/>
<path d="M715,236.22l2.15-28.95,20.93,1.56-.26,3.38-17.1-1.27-.66,8.87,16,1.19-.26,3.39-16-1.21-.73,9.86,17.78,1.34-.26,3.38Z" fill="#2f2e41" data-secondary="true"/>
<path d="M741.89,238.22,744,209.27l3.93.28,13.55,23.88,1.69-22.74,3.67.27-2.16,29-3.93-.31-13.55-23.87-1.69,22.74Z" fill="#2f2e41" data-secondary="true"/>
<polygon points="514.72 652.97 470.39 652.97 502.61 396.99 546.95 396.99 514.72 652.97" fill="#f20000" data-primary="true"/>
<polygon points="514.72 652.97 470.39 652.97 502.61 396.99 546.95 396.99 514.72 652.97" opacity="0.4" style="isolation:isolate"/>
<polygon points="680.06 652.97 635.73 652.97 667.95 396.99 712.29 396.99 680.06 652.97" fill="#f20000" data-primary="true"/>
<polygon points="680.06 652.97 635.73 652.97 667.95 396.99 712.29 396.99 680.06 652.97" opacity="0.4" style="isolation:isolate"/>
<polygon points="631.75 652.97 635.73 652.97 667.95 396.99 663.99 396.99 631.75 652.97" fill="#2e3135"/>
<polygon points="555.76 622.51 716.54 622.51 709.53 566.78 548.75 566.78 555.76 622.51" fill="#f20000" data-primary="true"/>
<polygon points="555.76 622.51 553.13 622.51 546.11 566.78 548.75 566.78 555.76 622.51" fill="#263238"/>
<polygon points="707.69 569.22 714.09 620.07 704.59 620.07 679.07 569.22 707.69 569.22" fill="#fff"/>
<polygon points="662.87 569.22 688.39 620.07 653.51 620.07 627.99 569.22 662.87 569.22" fill="#fff"/>
<polygon points="611.79 569.22 637.3 620.07 602.41 620.07 576.91 569.22 611.79 569.22" fill="#fff"/>
<polygon points="560.72 569.22 586.22 620.07 557.6 620.07 551.2 569.22 560.72 569.22" fill="#fff"/>
<polygon points="701.15 652.97 745.5 652.97 713.26 396.99 668.93 396.99 701.15 652.97" fill="#f20000" data-primary="true"/>
<polygon points="683.29 511.03 729.94 529.36 716.54 423.06 672.2 423.06 683.29 511.03" opacity="0.2" style="isolation:isolate"/>
<polygon points="701.15 652.97 697.19 652.97 664.97 396.99 668.93 396.99 701.15 652.97" fill="#2e3135"/>
<polygon points="535.81 652.97 580.16 652.97 547.94 396.99 503.59 396.99 535.81 652.97" fill="#f20000" data-primary="true"/>
<polygon points="517.95 511.03 564.6 529.36 551.2 423.06 506.88 423.06 517.95 511.03" opacity="0.2" style="isolation:isolate"/>
<polygon points="535.81 652.97 531.85 652.97 499.63 396.99 503.59 396.99 535.81 652.97" fill="#2e3135"/>
<polygon points="500.24 499.23 742.35 499.23 731.78 415.33 489.67 415.33 500.24 499.23" fill="#f20000" data-primary="true"/>
<polygon points="729.01 418.98 738.66 495.55 724.35 495.55 685.93 418.98 729.01 418.98" fill="#fff"/>
<polygon points="661.53 418.98 699.95 495.55 647.41 495.55 609.01 418.98 661.53 418.98" fill="#fff"/>
<polygon points="584.61 418.98 623.03 495.55 570.49 495.55 532.07 418.98 584.61 418.98" fill="#fff"/>
<polygon points="507.71 418.98 546.11 495.55 503.02 495.55 493.38 418.98 507.71 418.98" fill="#fff"/>
</svg>